<svg xmlns="http://www.w3.org/2000/svg" width="1200" height="800" viewBox="0 0 1200 800"><defs>
<linearGradient id="sky" x1="0" y1="0" x2="1" y2="1"><stop offset="0" stop-color="#E9F8FF"/><stop offset="1" stop-color="#DDF7E8"/></linearGradient>
<linearGradient id="leaf" x1="0" y1="0" x2="1" y2="1"><stop offset="0" stop-color="#B7F229"/><stop offset="0.55" stop-color="#36C96E"/><stop offset="1" stop-color="#0D7A4B"/></linearGradient>
<filter id="sh"><feDropShadow dx="0" dy="12" stdDeviation="14" flood-color="#103A4B" flood-opacity="0.12"/></filter>
</defs><rect x="120" y="80" width="960" height="640" rx="80" fill="#FFF7E8"/><g filter="url(#sh)"><rect x="310" y="150" width="430" height="390" rx="70" fill="white" stroke="#D8EDF3" stroke-width="8"/><line x1="525" y1="175" x2="525" y2="515" stroke="#D8EDF3" stroke-width="18"/><line x1="335" y1="345" x2="715" y2="345" stroke="#D8EDF3" stroke-width="18"/></g><g fill="#D7E0E7"><ellipse cx="660" cy="245" rx="105" ry="60"/><ellipse cx="600" cy="260" rx="75" ry="50"/></g><g fill="none" stroke="#E5A022" stroke-width="18" stroke-linecap="round"><path d="M570 360 C650 335,690 380,760 350"/><path d="M600 410 C690 385,740 430,815 395"/></g><path d="M640 520 C790 500,900 390,930 255 C790 285,675 350,610 470 C590 505,603 528,640 520Z" fill="url(#leaf)"/><path d="M640 515 C725 445,803 370,890 300" fill="none" stroke="#DDFB5A" stroke-width="14" stroke-linecap="round"/></svg>